# xmcd CD database file
#
# Track frame offsets:
#	150
#	5221
#	32159
#	64170
#	74139
#	90518
#	98776
#	119096
#	134606
#	177384
#
# Disc length: 3586 seconds
#
# Revision: 0
# Processed by: cddbd v1.5.2PL0 Copyright (c) Steve Scherf et al.
# Submitted via: CDex 1.51
#
DISCID=990e000a
DTITLE=Vladiswar Nadishana - Penetration into Substance
DYEAR=2001
DGENRE=Jazz
TTITLE0=Intro
TTITLE1=Song of the Far Lands
TTITLE2=Jae Koro-Nim
TTITLE3=Kuo Ke
TTITLE4=Twisted Dance 7/16
TTITLE5=Siberian Meditative Song
TTITLE6=Indian Flood in Europe
TTITLE7=Dance in a Curved Area
TTITLE8=Searching the Trace
TTITLE9=Untitled
EXTD=YEAR: 2001
EXTT0=
EXTT1=
EXTT2=
EXTT3=
EXTT4=
EXTT5=
EXTT6=
EXTT7=
EXTT8=
EXTT9=
PLAYORDER=
